General
Complete name                    : Miss March.mkv
Format                           : Matroska
File size                        : 1.17 GiB
Duration                         : 1h 29mn
Overall bit rate                 : 1 865 Kbps
Writing application              : HandBrake 0.9.4

Video
ID                               : 1
Format                           : AVC
Duration                         : 1h 29mn
Bit rate                         : 1 380 Kbps
Width                            : 720 pixels
Height                           : 552 pixels
Display aspect ratio             : 1.855
Resolution                       : 8 bits
Colorimetry                      : 4:2:0
Scan type                        : Progressive
Bits/(Pixel*Frame)               : 0.139
Stream size                      : 885 MiB (74%)
Writing library                  : x264 core 79

Audio
ID                               : 2
Format                           : AC-3
Format/Info                      : Audio Coding 3
Codec ID                         : A_AC3
Duration                         : 1h 29mn
Bit rate mode                    : Constant
Bit rate                         : 448 Kbps
Channel(s)                       : 6 channels
Channel positions                : Front: L C R, Side: L R, LFE
Sampling rate                    : 48.0 KHz
Stream size                      : 287 MiB (24%)
Language                         : English

Text #1
Language                         : English

Text #2
Language                         : Danish

Text #3
Language                         : Finnish

Text #4
Language                         : German

Text #5
Language                         : Norwegian

Text #6
Language                         : Spanish

Text #7
Language                         : Swedish

